<svg width="30" height="30" viewBox="0 0 30 30" fill="none" xmlns="http://www.w3.org/2000/svg">
<path d="M26.9672 25.3529L19.3588 17.7445C20.5395 16.2182 21.1781 14.352 21.1781 12.3891C21.1781 10.0395 20.2611 7.83633 18.6029 6.17519C16.9447 4.51406 14.7358 3.6 12.3891 3.6C10.0424 3.6 7.83341 4.51699 6.1752 6.17519C4.51407 7.8334 3.60001 10.0395 3.60001 12.3891C3.60001 14.7357 4.517 16.9447 6.1752 18.6029C7.83341 20.2641 10.0395 21.1781 12.3891 21.1781C14.352 21.1781 16.2152 20.5395 17.7416 19.3617L25.35 26.9672C25.3723 26.9895 25.3988 27.0072 25.428 27.0193C25.4571 27.0314 25.4884 27.0376 25.5199 27.0376C25.5515 27.0376 25.5827 27.0314 25.6119 27.0193C25.6411 27.0072 25.6675 26.9895 25.6899 26.9672L26.9672 25.6928C26.9895 25.6705 27.0072 25.644 27.0193 25.6148C27.0314 25.5857 27.0376 25.5544 27.0376 25.5229C27.0376 25.4913 27.0314 25.46 27.0193 25.4309C27.0072 25.4017 26.9895 25.3752 26.9672 25.3529ZM17.0297 17.0297C15.7875 18.2689 14.141 18.9516 12.3891 18.9516C10.6371 18.9516 8.99063 18.2689 7.74844 17.0297C6.50919 15.7875 5.82657 14.141 5.82657 12.3891C5.82657 10.6371 6.50919 8.98769 7.74844 7.74844C8.99063 6.50918 10.6371 5.82656 12.3891 5.82656C14.141 5.82656 15.7904 6.50625 17.0297 7.74844C18.269 8.99062 18.9516 10.6371 18.9516 12.3891C18.9516 14.141 18.269 15.7904 17.0297 17.0297Z" fill="url(#paint0_linear)"/>
<defs>
<linearGradient id="paint0_linear" x1="3.60001" y1="3.6" x2="31.7769" y2="17.2662" gradientUnits="userSpaceOnUse">
<stop stop-color="#3672F8"/>
<stop offset="1" stop-color="#B01EFF"/>
</linearGradient>
</defs>
</svg>
