<svg width="16" height="16" viewBox="0 0 16 16" fill="none" xmlns="http://www.w3.org/2000/svg">
<path fill-rule="evenodd" clip-rule="evenodd" d="M11.854 4.14599C11.9006 4.19244 11.9375 4.24761 11.9627 4.30836C11.9879 4.36911 12.0009 4.43423 12.0009 4.49999C12.0009 4.56576 11.9879 4.63088 11.9627 4.69163C11.9375 4.75237 11.9006 4.80755 11.854 4.85399L4.85402 11.854C4.76013 11.9479 4.6328 12.0006 4.50002 12.0006C4.36725 12.0006 4.23991 11.9479 4.14602 11.854C4.05213 11.7601 3.99939 11.6328 3.99939 11.5C3.99939 11.3672 4.05213 11.2399 4.14602 11.146L11.146 4.14599C11.1925 4.09943 11.2476 4.06249 11.3084 4.03728C11.3691 4.01207 11.4343 3.9991 11.5 3.9991C11.5658 3.9991 11.6309 4.01207 11.6917 4.03728C11.7524 4.06249 11.8076 4.09943 11.854 4.14599V4.14599Z" fill="#FAFAFA"/>
<path fill-rule="evenodd" clip-rule="evenodd" d="M4.14604 4.14599C4.09948 4.19244 4.06253 4.24761 4.03733 4.30836C4.01212 4.36911 3.99915 4.43423 3.99915 4.49999C3.99915 4.56576 4.01212 4.63088 4.03733 4.69163C4.06253 4.75237 4.09948 4.80755 4.14604 4.85399L11.146 11.854C11.2399 11.9479 11.3673 12.0006 11.5 12.0006C11.6328 12.0006 11.7602 11.9479 11.854 11.854C11.9479 11.7601 12.0007 11.6328 12.0007 11.5C12.0007 11.3672 11.9479 11.2399 11.854 11.146L4.85404 4.14599C4.80759 4.09943 4.75242 4.06249 4.69167 4.03728C4.63093 4.01207 4.56581 3.9991 4.50004 3.9991C4.43427 3.9991 4.36915 4.01207 4.30841 4.03728C4.24766 4.06249 4.19248 4.09943 4.14604 4.14599V4.14599Z" fill="#FAFAFA"/>
</svg>
