<svg width="38" height="50" viewBox="0 0 38 50" fill="none" xmlns="http://www.w3.org/2000/svg">
<path d="M30.0702 32.9477V48.8432C30.0702 49.0478 30.016 49.2488 29.913 49.4256C29.81 49.6025 29.6619 49.7488 29.4839 49.8497C29.3058 49.9505 29.1042 50.0024 28.8996 49.9999C28.695 49.9974 28.4947 49.9407 28.3192 49.8355L18.5047 43.9464L8.69028 49.8355C8.51458 49.9408 8.31408 49.9975 8.10927 49.9999C7.90445 50.0023 7.70268 49.9503 7.52458 49.8491C7.34648 49.7479 7.19845 49.6013 7.09561 49.4241C6.99277 49.247 6.93882 49.0457 6.93927 48.8409V32.95C3.94647 30.5538 1.77181 27.2872 0.715807 23.6017C-0.340196 19.9162 -0.225397 15.9936 1.04434 12.3761C2.31408 8.75864 4.67606 5.62485 7.80387 3.40782C10.9317 1.1908 14.6709 0 18.5047 0C22.3386 0 26.0778 1.1908 29.2056 3.40782C32.3334 5.62485 34.6954 8.75864 35.9651 12.3761C37.2348 15.9936 37.3496 19.9162 36.2936 23.6017C35.2376 27.2872 33.063 30.5538 30.0702 32.95V32.9477ZM18.5047 32.3809C22.1855 32.3809 25.7156 30.9187 28.3183 28.316C30.9211 25.7133 32.3833 22.1832 32.3833 18.5024C32.3833 14.8216 30.9211 11.2915 28.3183 8.6888C25.7156 6.08606 22.1855 4.62386 18.5047 4.62386C14.8239 4.62386 11.2938 6.08606 8.69111 8.6888C6.08838 11.2915 4.62618 14.8216 4.62618 18.5024C4.62618 22.1832 6.08838 25.7133 8.69111 28.316C11.2938 30.9187 14.8239 32.3809 18.5047 32.3809V32.3809ZM18.5047 27.7548C16.0508 27.7548 13.6975 26.78 11.9623 25.0448C10.2272 23.3097 9.25236 20.9563 9.25236 18.5024C9.25236 16.0485 10.2272 13.6952 11.9623 11.96C13.6975 10.2248 16.0508 9.25004 18.5047 9.25004C20.9586 9.25004 23.312 10.2248 25.0471 11.96C26.7823 13.6952 27.7571 16.0485 27.7571 18.5024C27.7571 20.9563 26.7823 23.3097 25.0471 25.0448C23.312 26.78 20.9586 27.7548 18.5047 27.7548Z" fill="url(#paint0_linear)"/>
<defs>
<linearGradient id="paint0_linear" x1="0" y1="0" x2="48.6849" y2="17.4779" gradientUnits="userSpaceOnUse">
<stop stop-color="#3672F8"/>
<stop offset="1" stop-color="#B01EFF"/>
</linearGradient>
</defs>
</svg>
