<svg width="85" height="34" viewBox="0 0 85 34" fill="none" xmlns="http://www.w3.org/2000/svg">
<path d="M31.5714 0H2.42857C1.78447 0 1.16676 0.255866 0.711312 0.711312C0.255866 1.16676 0 1.78447 0 2.42857V31.5714C0 32.2155 0.255866 32.8332 0.711312 33.2887C1.16676 33.7441 1.78447 34 2.42857 34H31.5714C32.2155 34 32.8332 33.7441 33.2887 33.2887C33.7441 32.8332 34 32.2155 34 31.5714V2.42857C34 1.78447 33.7441 1.16676 33.2887 0.711312C32.8332 0.255866 32.2155 0 31.5714 0ZM19.4286 3.64286H21.8571V7.28571H19.4286V3.64286ZM12.1429 3.64286H14.5714V7.28571H12.1429V3.64286ZM7.28571 30.3571H4.85714V26.7143H7.28571V30.3571ZM7.28571 7.28571H4.85714V3.64286H7.28571V7.28571ZM14.5714 30.3571H12.1429V26.7143H14.5714V30.3571ZM21.8571 30.3571H19.4286V26.7143H21.8571V30.3571ZM25.6943 18.02L13.8307 23.3143C13.6462 23.3925 13.4451 23.4237 13.2456 23.4053C13.046 23.3869 12.8541 23.3194 12.6869 23.2087C12.5198 23.0981 12.3827 22.9479 12.2877 22.7713C12.1928 22.5948 12.143 22.3976 12.1429 22.1971V11.6207C12.1433 11.4182 12.1944 11.219 12.2914 11.0412C12.3885 10.8635 12.5285 10.7128 12.6987 10.603C12.8688 10.4932 13.0638 10.4276 13.2657 10.4124C13.4677 10.3972 13.6703 10.4327 13.855 10.5157L25.6943 15.7857C25.9133 15.879 26.1001 16.0347 26.2314 16.2333C26.3627 16.4319 26.4327 16.6648 26.4327 16.9029C26.4327 17.1409 26.3627 17.3738 26.2314 17.5724C26.1001 17.771 25.9133 17.9267 25.6943 18.02ZM29.1429 30.3571H26.7143V26.7143H29.1429V30.3571ZM29.1429 7.28571H26.7143V3.64286H29.1429V7.28571Z" fill="url(#paint0_linear)"/>
<path d="M40.5113 11.0406L42.1122 22.7605L47.7844 11.0406H50.0967L47.5966 25.4286H45.8278L46.816 19.7366L47.9128 14.3905L42.3889 25.4286H41.0351L39.3354 14.1632L38.4954 19.9145L37.5468 25.4286H35.7779L38.2681 11.0406H40.5113ZM55.2452 25.6262C54.0462 25.5999 53.1074 25.1716 52.4289 24.3416C51.7569 23.5115 51.411 22.3751 51.3913 20.9323C51.3847 20.4514 51.411 19.9738 51.4703 19.4994L51.8854 16.8116C52.2148 14.9011 52.8604 13.4221 53.8222 12.3746C54.7906 11.3205 56.0094 10.81 57.4785 10.8429C58.605 10.8693 59.4977 11.2415 60.1565 11.9596C60.8153 12.6777 61.1974 13.6988 61.3028 15.023L61.3324 15.5566C61.3324 16.0441 61.3028 16.525 61.2435 16.9993L60.8186 19.7366C60.4826 21.6537 59.837 23.1228 58.8817 24.1439C57.9265 25.1651 56.7143 25.6592 55.2452 25.6262ZM59.4845 16.9598L59.5735 16.0013C59.6393 14.8484 59.4845 13.9788 59.109 13.3924C58.7335 12.7995 58.1538 12.4899 57.3698 12.4635C56.3882 12.4306 55.5812 12.7831 54.9487 13.5209C54.3163 14.2522 53.8782 15.3425 53.6345 16.7918L53.2095 19.6477L53.1404 20.4481C53.0745 21.5746 53.2293 22.4475 53.6048 23.0668C53.9869 23.6795 54.5699 23.999 55.3539 24.0253C57.2842 24.0846 58.5062 22.7374 59.0201 19.9837L59.4845 16.9598ZM66.8959 22.632L71.9061 11.0406H73.9022L67.3011 25.4286H65.7595L63.6744 11.0406H65.5421L66.8959 22.632Z" fill="#FAFAFA"/>
<path d="M75.9181 14.7364L75.5228 16.9796H78.4775L77.4004 23.1953H74.4457L74.0603 25.4286H82.5291L82.9244 23.1953H80.108L81.5804 14.7364H75.9181ZM79.1495 12.0485C79.1495 12.4833 79.2977 12.8325 79.5942 13.096C79.8972 13.3595 80.2595 13.4847 80.6812 13.4715C81.1094 13.4715 81.475 13.3332 81.7781 13.0565C82.0811 12.7732 82.2326 12.4043 82.2326 11.9497C82.2326 11.5149 82.0811 11.1657 81.7781 10.9022C81.4816 10.6387 81.1226 10.5135 80.7009 10.5267C80.253 10.5267 79.8807 10.6716 79.5843 10.9615C79.2944 11.2514 79.1495 11.6137 79.1495 12.0485Z" fill="url(#paint1_linear)"/>
<defs>
<linearGradient id="paint0_linear" x1="0" y1="0" x2="40.8751" y2="19.8249" gradientUnits="userSpaceOnUse">
<stop stop-color="#3672F8"/>
<stop offset="1" stop-color="#B01EFF"/>
</linearGradient>
<linearGradient id="paint1_linear" x1="35.2142" y1="2.42857" x2="80.4967" y2="38.4472" gradientUnits="userSpaceOnUse">
<stop stop-color="#3672F8"/>
<stop offset="1" stop-color="#B01EFF"/>
</linearGradient>
</defs>
</svg>
